<?xml version="1.0" standalone="no"?>
<!DOCTYPE svg PUBLIC "-//W3C//DTD SVG 20010904//EN"
 "http://www.w3.org/TR/2001/REC-SVG-20010904/DTD/svg10.dtd">
<svg version="1.0" xmlns="http://www.w3.org/2000/svg"
 width="589.000000pt" height="558.000000pt" viewBox="0 0 589.000000 558.000000"
 preserveAspectRatio="xMidYMid meet">

<g transform="translate(0.000000,558.000000) scale(0.100000,-0.100000)"
fill="#fe4101" stroke="none">
<path d="M1340 5223 c-201 -16 -433 -129 -566 -276 -104 -114 -177 -259 -208
-410 -14 -68 -16 -281 -16 -1905 0 -1652 2 -1834 16 -1883 76 -255 330 -408
595 -359 99 18 184 72 460 287 146 114 299 234 340 266 l75 57 1255 0 c793 0
1287 4 1344 10 306 35 559 213 690 483 86 181 79 39 83 1587 2 966 0 1394 -8
1439 -23 131 -72 244 -155 356 -125 169 -296 281 -505 331 -70 17 -173 18
-1715 19 -902 1 -1660 0 -1685 -2z m3382 -506 c92 -45 166 -122 201 -207 l22
-55 3 -1295 c2 -905 0 -1314 -8 -1359 -19 -111 -79 -202 -172 -263 -103 -68
10 -63 -1498 -68 l-1375 -5 -40 -22 c-22 -11 -204 -150 -404 -306 -200 -157
-372 -288 -382 -290 -10 -3 -27 2 -38 10 l-21 14 0 1759 c0 1264 3 1774 11
1812 31 147 153 273 295 307 23 5 713 8 1685 8 l1645 -2 76 -38z"/>
<path d="M3655 3903 c-81 -18 -91 -27 -500 -434 l-410 -409 -150 151 c-189
189 -217 210 -301 217 -46 3 -76 0 -107 -12 -85 -32 -147 -125 -147 -220 0
-84 31 -125 311 -403 284 -282 299 -293 398 -293 94 1 105 10 624 528 269 268
499 506 513 528 85 144 -5 322 -176 347 -19 2 -44 3 -55 0z"/>
</g>
</svg>
